<svg xmlns="http://www.w3.org/2000/svg" viewBox="0 0 212 21" fill="currentColor">
  <path d="M212 5.6c0-1.3-.3-4.4-.1-5.4.1-.2-.3-.2-.4-.1-.6.5-1.8.7-8.6.7-6.5 0-7.5-.2-8.2-.7-.1-.1-.4-.1-.4.1 0 1-.7 3.9-.9 5.2 0 .1.4.2.5 0 1-2.4 2.5-4 5.2-4 .9 0 1.4 0 2.1.1.1 1.1.1 3.9.1 8.9 0 8.5-.1 9.2-.4 9.3-.3.2-1.4.2-2.1.4-.2.1-.2.4 0 .4.8-.1 2.4-.1 3.9-.1s3 0 3.8.1c.1 0 .2-.3 0-.4-.7-.2-1.6-.1-2-.4-.2-.1-.4-.9-.4-9.3 0-5.1.1-7.9.1-8.9.8-.1 1.4-.1 2.6-.1 2.9 0 3.8 1.6 4.6 4.2.2.2.6.2.6 0m-19.3 9.7c.1-.2-.4-.2-.4-.1-.5 1.4-1.4 3.1-2 3.6-.8.6-1.6 1-4.9 1-1.6 0-2.6-.1-3-.3-.2-.1-.4-.6-.4-8 0-.4.1-.7.2-.8.3-.1.6-.1 2.3-.1 1.3 0 2.1.2 2.4.5.5.4 1 1.4 1.1 2.4 0 .2.4.2.4 0-.1-.8-.1-1.8-.1-3.3 0-1.5.1-2.5.1-3.2 0-.1-.4-.2-.4 0-.2 1-.6 1.9-1.2 2.4-.4.3-.9.5-2.4.5-1.7 0-2 0-2.3-.1-.1-.1-.2-.4-.2-.8 0-6.8.2-7.3.4-7.5.3-.2.9-.3 2.5-.3 2.7 0 3.6.3 4.3.8.7.5 1.2 1.7 1.7 3 0 .1.5.1.4-.1-.1-.6-.3-4.4-.5-4.5-1.8.1-3.6.1-6.7.1s-5.5-.1-7.1-.1c-.3 0-.2.3 0 .4.7.2 1.5.2 1.9.4.2.1.4.9.4 9.4s-.2 9.2-.4 9.3c-.4.2-1.2.2-1.9.4-.2.1-.3.4 0 .4 1.6-.1 4.5-.1 7.6-.1 3.2 0 5.4 0 7.2.1.3-.2.8-4.6 1-5.4m-17.3 0c.1-.2-.4-.2-.4-.1-.5 1.4-1.4 3.1-2 3.6-.8.6-1.6 1-4.9 1-1.6 0-2.6-.1-3-.3-.2-.1-.4-.6-.4-8 0-.4.1-.7.2-.8.3-.1.6-.1 2.3-.1 1.3 0 2.1.2 2.4.5.5.4 1 1.4 1.1 2.4 0 .2.4.2.4 0-.1-.8-.1-1.8-.1-3.3 0-1.5.1-2.5.1-3.2 0-.1-.4-.2-.4 0-.2 1-.6 1.9-1.2 2.4-.4.3-.9.5-2.4.5-1.7 0-2 0-2.3-.1-.1-.1-.2-.4-.2-.8 0-6.8.2-7.3.4-7.5.3-.2.9-.3 2.5-.3 2.7 0 3.6.3 4.3.8.7.5 1.2 1.7 1.7 3 0 .1.5.1.4-.1-.1-.6-.3-4.4-.5-4.5-1.8.1-3.6.1-6.7.1s-5.5-.1-7.1-.1c-.3 0-.2.3 0 .4.7.2 1.5.2 1.9.4.2.1.4.9.4 9.4s-.2 9.2-.4 9.3c-.4.2-1.2.2-1.9.4-.2.1-.3.4 0 .4 1.6-.1 4.5-.1 7.6-.1 3.2 0 5.4 0 7.2.1.3-.2.8-4.6 1-5.4m-17.6 5.2c.1 0 .2-.3-.1-.4-.7-.2-1.5-.1-1.9-.4-.2-.1-.4-.9-.4-9.3 0-8.5.2-9.3.4-9.4.4-.2 1.2-.2 1.9-.4.3-.1.2-.4.1-.4-.8.1-2.2.1-3.7.1s-2.8-.1-3.6-.1c-.1 0-.2.3 0 .4.7.2 1.4.2 1.8.4.2.1.4 1 .4 7.8 0 .4 0 .7-.2.8-.3.2-.8.2-4.9.2-4.1 0-4.6 0-4.9-.2-.2-.1-.2-.4-.2-.8 0-6.8.2-7.6.4-7.8.4-.2 1.1-.2 1.8-.4.2-.1.2-.4 0-.4-.8.1-2.1.1-3.6.1s-2.9-.1-3.6-.1c-.2 0-.2.3 0 .4.7.2 1.5.2 1.9.4.2.1.4.9.4 9.4s-.2 9.2-.4 9.3c-.4.2-1.2.2-1.9.4-.3.1-.2.4 0 .4.8-.1 2.1-.1 3.6-.1s2.8 0 3.6.1c.1 0 .2-.3 0-.4-.7-.2-1.4-.1-1.8-.4-.2-.1-.4-1-.4-8.4 0-.4 0-.7.2-.8.3-.2.8-.2 4.9-.2 4.1 0 4.6 0 4.9.2.2.1.2.4.2.8 0 7.4-.2 8.2-.4 8.4-.4.2-1.1.2-1.8.4-.2.1-.2.4 0 .4.8-.1 2.1-.1 3.6-.1s2.9.1 3.7.1m-22.3-5.2c0-6.7-9.4-6.2-9.4-11.1 0-2.3 1.4-3.6 3.2-3.6 2.3 0 3.8 1.7 4.7 4.3 0 .1.4.1.3-.1-.1-1.1-.1-4-.4-4.1-1.3-.6-2.5-.8-4.1-.8-4.1 0-6.4 2.3-6.4 5.6 0 5.7 9.4 5.2 9.4 10.7 0 2.5-1.6 4.1-3.7 4.1-2.9 0-4.6-1.6-6-5.6-.1-.1-.4-.1-.4.1.1 1.1.2 5 .4 5.1 2.1.9 4 1.2 5.4 1.2 4.4-.1 7-2.8 7-5.8M118 10.6c0 5.8-2.6 9.3-7.2 9.3-2.6 0-3.2-.1-3.7-.6-.5-.4-.8-1.7-.8-8.8 0-8.5.2-8.9.4-9 .4-.2 1.2-.4 2.7-.4 5.5 0 8.6 3.2 8.6 9.5m3.2-.1c0-5.7-3.5-10.1-11.2-10.1-.8 0-2.5.1-4 .1s-3.8-.1-4.6-.1c-.1 0-.2.3.1.4.7.2 1.5.2 1.9.4.2.1.4.9.4 9.4s-.1 9.2-.4 9.3c-.4.2-1.2.2-1.9.4-.3.1-.2.4-.1.4.8-.1 3.3-.1 4.8-.1s3.5.1 4.2.1c6.2-.2 10.8-4.6 10.8-10.2m-28.5 1.1H87c.9-2.4 1.7-4.5 2.8-7.3 0-.1.1-.1.2 0 .8 2.1 1.9 5 2.7 7.3m8.5 8.9c.2 0 .2-.3 0-.4-.7-.2-1.7-.2-2-.5-.8-.5-1.5-2.3-7.6-19.7-.1-.1-.8-.2-.8 0-3.9 10.8-6.7 17.9-7.5 19.1-.4.6-.8.9-2.2 1.1-.2 0-.2.4 0 .4.8-.1 1.4-.1 2.9-.1s1.9 0 2.7.1c.1 0 .2-.3-.1-.4-1.6-.3-1.9-.5-1.9-1 0-.6 1-3.2 2.3-6.9.7 0 1.8-.1 3.8-.1H93c.5 1.4.9 2.6 1.4 3.8 1.2 3.3.9 3.6.6 3.8-.4.2-1.3.1-2 .3-.2.1-.2.4 0 .4.8-.1 3.3-.1 4.9-.1 1.3.1 2.5.2 3.3.2m-21.9-9.9c0 6-2.5 9.7-6.7 9.7-4.3 0-7.4-3.9-7.4-9.9S67.7.7 71.9.7c4.3 0 7.4 3.8 7.4 9.9m3.2.1C82.5 5 78.8 0 72.2 0 66.5 0 62 4.6 62 10.3 62 16 65.7 21 72.3 21c5.6 0 10.2-4.6 10.2-10.3m-26.4-5c0 2.3-1.3 4.8-4 4.8-1.7 0-2.1 0-2.4-.1-.2-.1-.2-.2-.2-.4 0-7.1.2-8.4.4-8.6.4-.2.8-.3 2-.3 3 0 4.2 1.9 4.2 4.6m7.2 14.8c.1 0 .2-.3-.1-.4-.9-.1-1.4-.3-2.1-.6-1-.5-1.8-1.6-3.9-5-1.1-1.8-1.9-3.1-2.5-3.7-.1-.1-.1-.2 0-.3 2.7-.6 4.7-2.8 4.7-5.1 0-3.1-2.8-5.2-6.9-5.2-.8 0-1.8.1-3.3.1-1.5 0-3.8-.1-4.6-.1-.2 0-.2.3 0 .4.7.2 1.5.2 1.9.4.2.1.4.9.4 9.4s-.2 9.2-.4 9.3c-.5.3-1.3.3-2 .5-.3.1-.2.4 0 .4.8-.1 2.1-.1 3.6-.1s2.9 0 3.7.1c.1 0 .2-.3 0-.4-.8-.2-1.5-.2-1.9-.4-.2-.1-.4-.8-.4-8.2 0-.3.1-.3.2-.4s.5-.1.8-.1c1.3 0 1.7.3 2.5 1.5.8 1.1 1.9 3.1 3.4 5.6.6 1 1.3 2.3 1.7 2.3.4 0 2.1-.1 2.8-.1.7 0 1.6.1 2.4.1m-23.9-5.1c0 2.7-1.5 4.5-4.3 4.5-1.8 0-2.3-.1-2.7-.5-.5-.4-.6-1.8-.6-8.7 0-.2 0-.3.2-.4.3-.1.5-.1 1.8-.1 4-.1 5.6 2.2 5.6 5.2M38 5.2c0 2.3-1.5 4.2-4.2 4.2-1.4 0-1.4 0-1.8-.1-.2-.1-.2-.2-.2-.4 0-7.1.1-7.4.4-7.6.3-.2.5-.3 1.6-.3 3 .1 4.2 1.6 4.2 4.2m4.5 9.7c0-2.5-2-4.6-6.1-5.2-.1 0-.1-.2 0-.3 2.8-.6 4.7-2.1 4.7-4.4 0-3.1-2.9-4.7-6.8-4.7-.8 0-1.4.1-2.9.1S27.6.3 26.8.3c-.1 0-.2.3 0 .4.7.2 1.5.2 1.9.4.2.1.3.9.3 9.4s-.1 9.2-.4 9.3c-.4.2-1.2.2-1.9.4-.2.1-.2.4 0 .4.8-.1 3.3-.1 4.8-.1s2.6.1 3.3.1c4.4-.1 7.7-2.1 7.7-5.7"/>
</svg>